<?xml version="1.0" ?><svg id="Layer_1" style="enable-background:new 0 0 74 74;" version="1.1" viewBox="0 0 74 74" xml:space="preserve" xmlns="http://www.w3.org/2000/svg" xmlns:xlink="http://www.w3.org/1999/xlink"><style type="text/css">
	.st0{fill:#2B3033;}
</style><g><path class="st0" d="M66,21.6H8c-3.9,0-7,3.1-7,7v33.8c0,3.9,3.1,7,7,7h58c3.9,0,7-3.1,7-7V28.6C73,24.7,69.9,21.6,66,21.6z    M69,62.4c0,1.7-1.3,3-3,3H8c-1.7,0-3-1.3-3-3V28.6c0-1.7,1.3-3,3-3h58c1.7,0,3,1.3,3,3V62.4z"/><path class="st0" d="M8,17.1h58c1.1,0,2-0.9,2-2s-0.9-2-2-2H8c-1.1,0-2,0.9-2,2S6.9,17.1,8,17.1z"/><path class="st0" d="M12.1,8.6h49.7c1.1,0,2-0.9,2-2s-0.9-2-2-2H12.1c-1.1,0-2,0.9-2,2S11,8.6,12.1,8.6z"/><path class="st0" d="M43.5,34.6H39v-2.4c0-1.1-0.9-2-2-2s-2,0.9-2,2v2.6c-2.6,0.7-4.5,3.1-4.5,5.9c0,3.4,2.7,6.1,6.1,6.1h0.8   c1.2,0,2.1,0.9,2.1,2.1c0,1.2-0.9,2.1-2.1,2.1h-6.9c-1.1,0-2,0.9-2,2s0.9,2,2,2H35v2.4c0,1.1,0.9,2,2,2s2-0.9,2-2v-2.6   c2.6-0.7,4.5-3.1,4.5-5.9c0-3.4-2.7-6.1-6.1-6.1h-0.8c-1.2,0-2.1-0.9-2.1-2.1s0.9-2.1,2.1-2.1h6.9c1.1,0,2-0.9,2-2   S44.6,34.6,43.5,34.6z"/><path class="st0" d="M17.4,39.2c-3.4,0-6.3,2.8-6.3,6.3s2.8,6.3,6.3,6.3s6.3-2.8,6.3-6.3S20.9,39.2,17.4,39.2z M17.4,47.7   c-1.2,0-2.3-1-2.3-2.3s1-2.3,2.3-2.3s2.3,1,2.3,2.3S18.7,47.7,17.4,47.7z"/><path class="st0" d="M56.6,39.2c-3.4,0-6.3,2.8-6.3,6.3s2.8,6.3,6.3,6.3s6.3-2.8,6.3-6.3S60,39.2,56.6,39.2z M56.6,47.7   c-1.2,0-2.3-1-2.3-2.3s1-2.3,2.3-2.3s2.3,1,2.3,2.3S57.8,47.7,56.6,47.7z"/></g></svg>