<?xml version="1.0" ?><svg data-name="Layer 1" id="Layer_1" viewBox="0 0 64 64" xmlns="http://www.w3.org/2000/svg"><title/><path d="M32,62A30,30,0,1,1,62,32,30,30,0,0,1,32,62ZM32,4A28,28,0,1,0,60,32,28,28,0,0,0,32,4Z"/><path d="M8.56,61.94a6.59,6.59,0,0,1-4.82-1.69C1,57.51,1.53,52,5.23,44.66l1.79.9C3.79,52,3.11,56.78,5.16,58.83S12.05,60.2,18.44,57C25.26,53.51,33,47.59,40.31,40.31s13.2-15,16.65-21.87c3.24-6.39,3.92-11.23,1.87-13.28S51.94,3.79,45.54,7l-.9-1.79C52,1.53,57.51,1,60.25,3.74c5.45,5.46-2.68,22.14-18.53,38C29.21,54.23,16.18,61.94,8.56,61.94Z"/><path d="M55.43,61.94c-7.62,0-20.66-7.71-33.17-20.22C6.42,25.88-1.71,9.2,3.74,3.74,6.48,1,12,1.53,19.35,5.24L18.44,7C12.05,3.79,7.21,3.11,5.16,5.16c-4,4,2.46,19.1,18.52,35.15C31,47.59,38.73,53.51,45.54,57c6.4,3.24,11.24,3.92,13.29,1.87S60.2,52,57,45.58l1.78-.9C62.45,52,63,57.51,60.25,60.25A6.61,6.61,0,0,1,55.43,61.94Z"/><path d="M25.9,48a1.48,1.48,0,0,1-1.09-.49l-5.09-5.76A7.24,7.24,0,0,1,17.9,37V23.43A4.09,4.09,0,0,1,19,20.6l5-5.25a9.8,9.8,0,0,1,2.74-2l6.94-3.53A10.21,10.21,0,0,1,38.23,8.7l12.36,0v2l-12.36,0a8,8,0,0,0-3.62.87l-7,3.52a8.18,8.18,0,0,0-2.19,1.63l-5,5.25a2.11,2.11,0,0,0-.58,1.46V37a5.25,5.25,0,0,0,1.32,3.48L26,45.87a5.26,5.26,0,0,0,2.3-4.34v-.86A9.85,9.85,0,0,1,33,32.25L34,31.6A4.09,4.09,0,0,1,36.87,31l4.58.74a4.15,4.15,0,0,1,3,2.16l2.08,4V35a4.12,4.12,0,0,1,4.12-4.12h3a2.12,2.12,0,0,0,1.79-1l3.76-5.92L60.85,25l-3.77,5.93a4.11,4.11,0,0,1-3.47,1.91h-3A2.12,2.12,0,0,0,48.52,35v5.19a1.45,1.45,0,0,1-1.11,1.41,1.44,1.44,0,0,1-1.62-.74l-3.12-6a2.11,2.11,0,0,0-1.54-1.11L36.54,33a2.15,2.15,0,0,0-1.46.29L34,34a7.87,7.87,0,0,0-3.74,6.72v.86a7.28,7.28,0,0,1-3.53,6.23l-.13.07A1.43,1.43,0,0,1,25.9,48Z"/><path d="M19.4,58.83l-1-1.73,4.22-2.46a12.54,12.54,0,0,1,6.32-1.71h4.15a12.34,12.34,0,0,1,4.12.7l8.89,3.1-.66,1.89-8.89-3.11a10.69,10.69,0,0,0-3.46-.58H28.93a10.52,10.52,0,0,0-5.31,1.43Z"/><path d="M11.88,52.18l-2-.3,1.51-10.23a6.92,6.92,0,0,0-.12-2.72L9.92,33.15a1,1,0,0,1,0-.23,2.45,2.45,0,0,0-.44-1.41L8.7,30.46a2.44,2.44,0,0,0-2-1l-3.51-.06,0-2,3.49.06a4.43,4.43,0,0,1,3.6,1.87l.75,1.06a4.37,4.37,0,0,1,.81,2.43l1.35,5.67a9.27,9.27,0,0,1,.15,3.48Z"/><path d="M8.14,16.85l-.28-2,5.37-.75,4.14-1.9a7.44,7.44,0,0,0,3.05-2.59L22,7.36l1.18-3.58,1.9.62L23.84,8.06a1.27,1.27,0,0,1-.18.37l-1.58,2.33A9.51,9.51,0,0,1,18.2,14L14,16a1.33,1.33,0,0,1-.42.12Zm5.16-2.74ZM22,7.3Z"/><path d="M51.87,49H48.41l-.27,0-4-.79A1.45,1.45,0,0,1,43,46.55l.38-2.13a1.44,1.44,0,0,1,1.42-1.19H49a1.43,1.43,0,0,1,1.05.45l2.53,2.68A1.44,1.44,0,0,1,51.87,49Zm-3.41-2h2.06L48.8,45.23H45.21L45,46.37Zm-3.54-.14h0Zm7.6-.6h0Z"/><path d="M33.58,49a1.54,1.54,0,0,1-.71-.19l-1-.54a1.45,1.45,0,0,1-.63-1.82l1.19-2.89h0a1.43,1.43,0,0,1,1-.84,1.4,1.4,0,0,1,1.26.27l2,1.62a1.44,1.44,0,0,1,.55,1.13,1.41,1.41,0,0,1-.55,1.13l-2.27,1.81A1.44,1.44,0,0,1,33.58,49Zm-.27-2.24.22.12L35,45.7,34,45Z"/></svg>